<svg xmlns="http://www.w3.org/2000/svg" width="1920" height="1080" viewBox="0 0 1920 1080">
  <defs>
    <linearGradient id="wall" x1="0" y1="0" x2="0" y2="1">
      <stop offset="0" stop-color="#FFFFFF"/>
      <stop offset="1" stop-color="#BDE9FA"/>
    </linearGradient>
    <linearGradient id="floorGrad" x1="0" y1="760" x2="0" y2="1080" gradientUnits="userSpaceOnUse">
      <stop offset="0" stop-color="#C9F2E3"/>
      <stop offset="1" stop-color="#BDE9FA"/>
    </linearGradient>
    <filter id="softShadow" x="-20%" y="-20%" width="140%" height="140%">
      <feDropShadow dx="0" dy="10" stdDeviation="16" flood-color="#3A4A5A" flood-opacity="0.12"/>
    </filter>
    <radialGradient id="sunGlow" cx="50%" cy="45%" r="60%">
      <stop offset="0" stop-color="#FFFFFF" stop-opacity="0.95"/>
      <stop offset="1" stop-color="#FFD93D" stop-opacity="0"/>
    </radialGradient>
  </defs>
  <rect width="1920" height="780" fill="url(#wall)"/>
  <rect y="760" width="1920" height="320" fill="url(#floorGrad)"/>
  <g opacity="0.18" stroke="#3A4A5A" stroke-width="3">
    <path d="M0 840H1920"/>
    <path d="M0 930H1920"/>
    <path d="M0 1020H1920"/>
    <path d="M220 760L130 1080"/>
    <path d="M520 760L470 1080"/>
    <path d="M1380 760L1450 1080"/>
    <path d="M1700 760L1840 1080"/>
  </g>
  <g transform="translate(120 105)" filter="url(#softShadow)">
    <rect x="0" y="0" width="360" height="300" rx="36" fill="#FFFFFF"/>
    <rect x="28" y="28" width="304" height="244" rx="26" fill="#BDE9FA"/>
    <circle cx="235" cy="100" r="145" fill="url(#sunGlow)"/>
    <path d="M180 30V270M30 150H330" stroke="#FFFFFF" stroke-width="14" stroke-linecap="round"/>
  </g>
  <g transform="translate(1510 135)" filter="url(#softShadow)">
    <rect x="0" y="0" width="230" height="160" rx="28" fill="#FFFFFF"/>
    <rect x="22" y="22" width="186" height="116" rx="20" fill="#C9F2E3"/>
    <circle cx="75" cy="70" r="26" fill="#FFD93D"/>
    <path d="M36 124C78 84 108 92 136 118C158 98 178 88 204 124Z" fill="#5CC6F0"/>
  </g>
  <g transform="translate(80 650)" filter="url(#softShadow)">
    <rect x="0" y="75" width="360" height="32" rx="16" fill="#FFFFFF"/>
    <rect x="30" y="0" width="90" height="80" rx="20" fill="#FFD93D"/>
    <rect x="145" y="18" width="70" height="62" rx="16" fill="#FFA94D"/>
    <rect x="240" y="10" width="78" height="70" rx="18" fill="#C9F2E3"/>
    <path d="M270 54C235 34 250 4 278 24C296 -4 328 22 302 54Z" fill="#5CC6F0"/>
  </g>
  <g transform="translate(1620 700)" filter="url(#softShadow)">
    <rect x="42" y="120" width="190" height="26" rx="13" fill="#FFFFFF"/>
    <path d="M138 122C122 78 126 38 162 6C190 42 185 82 148 124Z" fill="#5CC6F0"/>
    <path d="M120 124C78 102 64 62 86 22C126 44 138 82 120 124Z" fill="#C9F2E3"/>
    <path d="M150 124C198 98 210 62 188 30C150 48 138 84 150 124Z" fill="#FFD93D"/>
    <rect x="86" y="115" width="105" height="92" rx="28" fill="#FFA94D"/>
  </g>
</svg>
