<svg xmlns="http://www.w3.org/2000/svg" width="256" height="256" viewBox="0 0 256 256">
  <defs>
    <filter id="shadow" x="-20%" y="-20%" width="140%" height="140%">
      <feDropShadow dx="0" dy="8" stdDeviation="10" flood-color="#3A4A5A" flood-opacity="0.12"/>
    </filter>
  </defs>
  <g filter="url(#shadow)">
    <path d="M64 130C64 72 106 38 158 44C206 49 226 86 220 128C216 158 194 184 154 196C112 209 64 188 64 130Z" fill="#FFD93D"/>
    <path d="M201 121C221 120 234 132 232 148C230 162 214 168 198 159Z" fill="#FFD93D"/>
  </g>
  <circle cx="160" cy="108" r="8" fill="#3A4A5A"/>
  <path d="M202 140C194 148 184 148 176 141" fill="none" stroke="#3A4A5A" stroke-width="6" stroke-linecap="round"/>
  <circle cx="142" cy="144" r="16" fill="#FF6B6B" opacity="0.28"/>
  <path d="M94 70C112 48 150 38 180 52" fill="none" stroke="#FFA94D" stroke-width="9" stroke-linecap="round" opacity="0.5"/>
</svg>
