<svg xmlns="http://www.w3.org/2000/svg" width="256" height="256" viewBox="0 0 256 256">
  <defs>
    <filter id="shadow" x="-20%" y="-20%" width="140%" height="140%">
      <feDropShadow dx="0" dy="8" stdDeviation="10" flood-color="#3A4A5A" flood-opacity="0.12"/>
    </filter>
  </defs>
  <g filter="url(#shadow)">
    <path d="M58 130C58 72 102 38 154 44C204 49 230 86 226 128C223 162 196 190 154 199C108 209 58 188 58 130Z" fill="#FFD93D"/>
    <circle cx="181" cy="146" r="39" fill="#FFA94D" opacity="0.35"/>
    <path d="M211 126C232 124 245 137 241 152C238 165 219 168 204 157Z" fill="#FFD93D"/>
  </g>
  <circle cx="155" cy="106" r="8" fill="#3A4A5A"/>
  <path d="M209 142C222 136 235 140 240 150C231 158 218 158 207 151Z" fill="#FFFFFF"/>
  <path d="M210 142C222 136 235 140 240 150" fill="none" stroke="#3A4A5A" stroke-width="5" stroke-linecap="round"/>
  <path d="M92 70C110 48 148 38 178 52" fill="none" stroke="#FFA94D" stroke-width="9" stroke-linecap="round" opacity="0.5"/>
  <path d="M238 120C250 112 260 112 272 120M238 164C252 174 264 174 278 164" stroke="#5CC6F0" stroke-width="7" stroke-linecap="round" opacity="0.65"/>
</svg>
