<svg xmlns="http://www.w3.org/2000/svg" width="600" height="160" viewBox="0 0 600 160">
  <rect width="600" height="160" fill="#C9F2E3"/>
  <g opacity="0.18" stroke="#3A4A5A" stroke-width="2">
    <path d="M0 40H600M0 80H600M0 120H600"/>
    <path d="M100 0V40M260 0V40M430 0V40"/>
    <path d="M40 40V80M210 40V80M380 40V80M540 40V80"/>
    <path d="M130 80V120M300 80V120M470 80V120"/>
    <path d="M80 120V160M250 120V160M420 120V160"/>
  </g>
  <g fill="none" stroke="#FFFFFF" stroke-width="3" stroke-linecap="round" opacity="0.35">
    <path d="M30 22C68 14 92 15 126 24"/>
    <path d="M318 58C360 48 392 50 430 60"/>
    <path d="M84 104C120 96 154 98 186 108"/>
    <path d="M438 140C482 130 520 132 564 142"/>
  </g>
</svg>
